# xmcd
#
# Track frame offsets: 
#        150
#        17562
#        31012
#        49080
#        62237
#        81153
#        103036
#        120308
#        138038
#        155073
#        178546
#        188387
#        207804
#        224934
#        239951
#
# Disc length: 3377 seconds
#
# Revision: 0
# Processed by: cddbd v1.5.2PL0 Copyright (c) Steve Scherf et al.
# Submitted via: ExactAudioCopy v0.99pb5
#
DISCID=ce0d2f0f
DTITLE=Kantankerous - Back at the 'Shack
DYEAR=2004
DGENRE=Bluegrass
TTITLE0=doin' my time
TTITLE1=high on a mountain top
TTITLE2=foggy mountain special
TTITLE3=let me love you more time
TTITLE4=the old old house
TTITLE5=goldrush
TTITLE6=walls of time
TTITLE7=rawhide
TTITLE8=shenandoah valley waltz
TTITLE9=dark hollow
TTITLE10=how mountain girls can love
TTITLE11=blackberry blossom
TTITLE12=banks of the ohlo
TTITLE13=jambalaya
TTITLE14=pike county breakdown
EXTD=
EXTT0=
EXTT1=
EXTT2=
EXTT3=
EXTT4=
EXTT5=
EXTT6=
EXTT7=
EXTT8=
EXTT9=
EXTT10=
EXTT11=
EXTT12=
EXTT13=
EXTT14=
PLAYORDER=
